<?xml version="1.0" encoding="utf-8"?>
<!-- Generator: Adobe Illustrator 24.3.0, SVG Export Plug-In . SVG Version: 6.00 Build 0)  -->
<svg version="1.1" id="Layer_1" xmlns="http://www.w3.org/2000/svg" xmlns:xlink="http://www.w3.org/1999/xlink" x="0px" y="0px"
	 viewBox="0 0 235.7 193.6" style="enable-background:new 0 0 235.7 193.6;" xml:space="preserve">
<style type="text/css">
	.st0{fill:#7D9EEC;}
	.st1{fill:#CAD3F4;}
	.st2{fill:#181A1E;}
	.st3{fill:#0E33A1;}
	.st4{fill:#0D36A8;}
	.st5{fill:#181920;}
</style>
<path class="st0" d="M0,0h131.7l-24.9,55.7l-10.6,52.8l37.4,3.8l5.8,81.3H0V0z"/>
<path class="st1" d="M131.4,0h104.3v193.6h-97l-3.8-83.3L95.7,111l8.9-55.5L131.4,0z"/>
<path class="st2" d="M136.6,157.6l-0.2-11.4c22.9-0.5,41.8-5.6,57.8-15.7l5.5,9.8C182.1,151.4,161.4,157,136.6,157.6z"/>
<path class="st3" d="M114.6,158.5c-30,0-55.3-6-78.4-18.6l5-10.2c25.5,13.9,53.9,19.2,89.4,16.8l0.7,11.4
	C125.5,158.3,120,158.5,114.6,158.5z"/>
<rect x="59" y="32.1" class="st4" width="10.8" height="29.2"/>
<rect x="159.3" y="32.1" class="st5" width="10.8" height="29.2"/>
<g>
	<g>
		<path class="st2" d="M144.4,112l2.1-7.4h-44.4c3.6-44.5,22.7-89.5,55.5-130.5l-8.3-7.4C113.4,11.5,93.2,61,90.8,110l-0.3,6H132
			c-8.2,35.9-3.3,76.1,13.8,111.6l9.8-5.2C138.8,187.6,134.6,146.3,144.4,112z"/>
	</g>
</g>
</svg>
